<?xml version="1.0" encoding="utf-8"?>
<!-- Generator: Adobe Illustrator 21.0.1, SVG Export Plug-In . SVG Version: 6.00 Build 0)  -->
<svg version="1.1" id="Layer_1" xmlns="http://www.w3.org/2000/svg" xmlns:xlink="http://www.w3.org/1999/xlink" x="0px" y="0px"
	 viewBox="0 0 60 60" style="enable-background:new 0 0 60 60;" xml:space="preserve">
<style type="text/css">
	.st0{fill:#333333;}
	.st1{fill:#822E1A;}
	.st2{fill:#F9A01B;}
	.st3{fill:none;stroke:#F9A01B;stroke-width:0.5;stroke-miterlimit:10;}
</style>
<circle class="st0" cx="30" cy="30" r="24.5"/>
<path class="st1" d="M25.4,25.7c0-1.9,0-3.8,0-5.7c0-2.1,1.7-4,3.8-4.4c2.8-0.4,5.3,1.6,5.3,4.5c0,2.4,0,4.8,0,7.2
	c0,1.3,0,2.6,0,3.9c0,2.3-1.5,4.1-3.8,4.6c-2.5,0.5-4.9-1.3-5.3-3.8c-0.1-0.4-0.1-0.8-0.1-1.3C25.4,29,25.4,27.3,25.4,25.7
	L25.4,25.7z"/>
<path class="st2" d="M29,42.9c0-0.1,0-0.1,0-0.2c0-1,0-2,0-3.1c0-0.2,0-0.2-0.2-0.3c-3.5-0.6-5.7-2.8-6.7-6.2
	c-0.2-0.8-0.4-1.6-0.4-2.5c0-1.2,0-2.4,0-3.6c0-0.4,0.2-0.7,0.6-0.8c0.4-0.1,0.7-0.1,1,0.2c0.2,0.2,0.3,0.5,0.3,0.7
	c0,1.1,0,2.2,0,3.3c0,1.6,0.4,3.2,1.4,4.5c2.6,3.6,7.7,3.5,10.2-0.2c0.8-1.2,1.2-2.6,1.2-4c0-1.1,0-2.3,0-3.4c0-0.7,0.6-1.1,1.2-0.9
	c0.4,0.1,0.6,0.4,0.6,0.8c0,1.8,0.2,3.7-0.2,5.5c-0.7,3-2.5,5.2-5.5,6.3c-0.5,0.2-1,0.3-1.6,0.4v3.4h0.4c1.7,0,3.4,0,5.1,0
	c0.5,0,0.9,0.3,0.9,0.8c0.1,0.4-0.2,0.9-0.7,1c-0.1,0-0.2,0-0.3,0c-4.2,0-8.4,0-12.7,0c-0.4,0-0.8-0.2-0.9-0.6
	c-0.1-0.4-0.1-0.8,0.2-1c0.2-0.1,0.5-0.2,0.7-0.2c1.7,0,3.3,0,5,0L29,42.9L29,42.9z"/>
<line class="st3" x1="1.5" y1="3" x2="58.8" y2="3"/>
<line class="st3" x1="1.5" y1="57" x2="58.8" y2="57"/>
</svg>
